<svg xmlns="http://www.w3.org/2000/svg" width="64" height="64" viewBox="0 0 64 64" fill="none">
  <defs>
    <linearGradient id="klg" gradientUnits="userSpaceOnUse" x1="8" y1="8" x2="56" y2="56">
      <stop offset="0%" stop-color="#22d3ee"/>
      <stop offset="100%" stop-color="#818cf8"/>
    </linearGradient>
  </defs>
  <rect width="64" height="64" rx="14" fill="#0d1117"/>
  <circle cx="32" cy="32" r="28" fill="none" stroke="#6d28d9" stroke-width="2"/>
  <circle cx="32" cy="32" r="26" fill="none" stroke="#22d3ee" stroke-width="2"/>
  <circle cx="32" cy="32" r="17" fill="none" stroke="url(#klg)" stroke-width="0.8" opacity="0.4"/>
  <circle cx="32" cy="12" r="1.8" fill="url(#klg)"/>
  <circle cx="42" cy="14.7" r="1" fill="url(#klg)"/>
  <circle cx="49.3" cy="22" r="1" fill="url(#klg)"/>
  <circle cx="52" cy="32" r="1.8" fill="url(#klg)"/>
  <circle cx="49.3" cy="42" r="1" fill="url(#klg)"/>
  <circle cx="42" cy="49.3" r="1" fill="url(#klg)"/>
  <circle cx="32" cy="52" r="1.8" fill="url(#klg)"/>
  <circle cx="22" cy="49.3" r="1" fill="url(#klg)"/>
  <circle cx="14.7" cy="42" r="1" fill="url(#klg)"/>
  <circle cx="12" cy="32" r="1.8" fill="url(#klg)"/>
  <circle cx="14.7" cy="22" r="1" fill="url(#klg)"/>
  <circle cx="22" cy="14.7" r="1" fill="url(#klg)"/>
  <line x1="32" y1="32" x2="40.4" y2="39.1" stroke="url(#klg)" stroke-width="3" stroke-linecap="round"/>
  <line x1="32" y1="32" x2="46.6" y2="42.6" stroke="url(#klg)" stroke-width="2" stroke-linecap="round"/>
  <circle cx="32" cy="32" r="2.6" fill="url(#klg)"/>
</svg>
